<svg width="32" height="32" viewBox="0 0 32 32" fill="none" xmlns="http://www.w3.org/2000/svg">
  <rect width="32" height="32" rx="6" fill="#7C3AED"/>
  <path d="M8 18L10 12H22L24 18M8 18V22C8 22.5523 8.44772 23 9 23H10C10.5523 23 11 22.5523 11 22V21H21V22C21 22.5523 21.4477 23 22 23H23C23.5523 23 24 22.5523 24 22V18M8 18H24M11 18C11 18.5523 10.5523 19 10 19C9.44772 19 9 18.5523 9 18C9 17.4477 9.44772 17 10 17C10.5523 17 11 17.4477 11 18ZM23 18C23 18.5523 22.5523 19 22 19C21.4477 19 21 18.5523 21 18C21 17.4477 21.4477 17 22 17C22.5523 17 23 17.4477 23 18Z" stroke="white" stroke-width="1.5" stroke-linecap="round" stroke-linejoin="round"/>
</svg>

